<svg xmlns="http://www.w3.org/2000/svg" viewBox="0 0 64 64" width="64" height="64" id="server-coding"><g><rect width="14" height="3" x="17" y="58" fill="#232427"></rect><path fill="#232427" d="M45,29V51H3V29a2.006,2.006,0,0,1,2-2H43A2.006,2.006,0,0,1,45,29Z"></path><path fill="#232427" d="M61 47v6a2.006 2.006 0 0 1-2 2H43a2.006 2.006 0 0 0 2-2V52H57V48H45V45H59A2.006 2.006 0 0 1 61 47zM61 33v6a2.006 2.006 0 0 1-2 2H45V38H57V34H45V31H59A2.006 2.006 0 0 1 61 33zM59 17H27a2.006 2.006 0 0 0-2 2v6a2.006 2.006 0 0 0 2 2H59a2.006 2.006 0 0 0 2-2V19A2.006 2.006 0 0 0 59 17zM33 24H29V20h4zm8 0H37V20h4zm16 0H45V20H57zM59 3H27a2.006 2.006 0 0 0-2 2v6a2.006 2.006 0 0 0 2 2H59a2.006 2.006 0 0 0 2-2V5A2.006 2.006 0 0 0 59 3zM33 10H29V6h4zm8 0H37V6h4zm16 0H45V6H57z"></path><path fill="#ecf3fb" d="M62,11V5a3,3,0,0,0-3-3H27a3,3,0,0,0-3,3v6a3,3,0,0,0,3,3v2a3,3,0,0,0-3,3v6a2.966,2.966,0,0,0,.184,1H5a3,3,0,0,0-3,3V53a3,3,0,0,0,3,3H20v1H17a1,1,0,0,0-1,1v2H15v2H33V60H32V58a1,1,0,0,0-1-1H28V56H59a3,3,0,0,0,3-3V47a3,3,0,0,0-3-3V42a3,3,0,0,0,3-3V33a3,3,0,0,0-3-3V28a3,3,0,0,0,3-3V19a3,3,0,0,0-3-3V14A3,3,0,0,0,62,11ZM26,11V5a1,1,0,0,1,1-1H59a1,1,0,0,1,1,1v6a1,1,0,0,1-1,1H27A1,1,0,0,1,26,11ZM4,29a1,1,0,0,1,1-1H43a1,1,0,0,1,1,1V50H4Zm42,6H56v2H46Zm0,14H56v2H46ZM30,60H18V59H30Zm-4-3H22V56h4ZM5,54a1,1,0,0,1-1-1V52H44v1a1,1,0,0,1-1,1Zm55-7v6a1,1,0,0,1-1,1H45.816A2.966,2.966,0,0,0,46,53H57a1,1,0,0,0,1-1V48a1,1,0,0,0-1-1H46V46H59A1,1,0,0,1,60,47Zm-3-3H46V42H57Zm3-11v6a1,1,0,0,1-1,1H46V39H57a1,1,0,0,0,1-1V34a1,1,0,0,0-1-1H46V32H59A1,1,0,0,1,60,33Zm-3-3H46V29a2.966,2.966,0,0,0-.184-1H57Zm3-11v6a1,1,0,0,1-1,1H27a1,1,0,0,1-1-1V19a1,1,0,0,1,1-1H59A1,1,0,0,1,60,19Zm-3-3H29V14H57Z"></path><path fill="#ecf3fb" d="M29 11h4a1 1 0 0 0 1-1V6a1 1 0 0 0-1-1H29a1 1 0 0 0-1 1v4A1 1 0 0 0 29 11zm1-4h2V9H30zM37 11h4a1 1 0 0 0 1-1V6a1 1 0 0 0-1-1H37a1 1 0 0 0-1 1v4A1 1 0 0 0 37 11zm1-4h2V9H38zM45 11H57a1 1 0 0 0 1-1V6a1 1 0 0 0-1-1H45a1 1 0 0 0-1 1v4A1 1 0 0 0 45 11zm1-4H56V9H46zM33 19H29a1 1 0 0 0-1 1v4a1 1 0 0 0 1 1h4a1 1 0 0 0 1-1V20A1 1 0 0 0 33 19zm-1 4H30V21h2zM41 19H37a1 1 0 0 0-1 1v4a1 1 0 0 0 1 1h4a1 1 0 0 0 1-1V20A1 1 0 0 0 41 19zm-1 4H38V21h2zM57 19H45a1 1 0 0 0-1 1v4a1 1 0 0 0 1 1H57a1 1 0 0 0 1-1V20A1 1 0 0 0 57 19zm-1 4H46V21H56zM18.219 34.375l-4 5a1 1 0 0 0 0 1.25l4 5 1.562-1.25L16.28 40l3.5-4.375zM29.781 34.375l-1.562 1.25L31.72 40l-3.5 4.375 1.562 1.25 4-5a1 1 0 0 0 0-1.25z"></path><rect width="10.77" height="2.001" x="18.615" y="39" fill="#ecf3fb" transform="rotate(-68.193 24 40)"></rect></g></svg>